<svg width="130" height="46" viewBox="0 0 130 46" fill="none" xmlns="http://www.w3.org/2000/svg">
<path d="M25.0539 8.70448C25.8566 10.3233 26.258 12.1254 26.258 14.1107C26.258 16.096 25.8566 17.8981 25.0539 19.5169C24.2512 21.1051 23.2169 22.3727 21.9511 23.3195C19.3886 25.2743 16.7335 26.2517 13.9857 26.2517H8.19696V31.4288C8.19696 32.1313 8.16607 32.6658 8.1043 33.0323C8.07345 33.3683 7.93452 33.7654 7.68751 34.2235C7.25527 35.0482 6.0512 35.4606 4.0753 35.4606C1.91415 35.4606 0.648338 34.8955 0.277855 33.7654C0.0926211 33.2461 0 32.452 0 31.383V5.95556C0 5.25306 0.0154251 4.73382 0.046271 4.39784C0.108046 4.03133 0.262413 3.61899 0.509371 3.16084C0.941605 2.33616 2.14567 1.92383 4.12157 1.92383H14.032C16.7488 1.92383 19.3885 2.90122 21.951 4.856C23.2168 5.80285 24.2511 7.08568 25.0538 8.70448H25.0539ZM14.0321 18.1424C14.9583 18.1424 15.869 17.8064 16.7644 17.1345C17.6597 16.4625 18.1074 15.4546 18.1074 14.1107C18.1074 12.7668 17.6597 11.7588 16.7644 11.0869C15.869 10.3844 14.9428 10.0331 13.9857 10.0331H8.19696V18.1424H14.0321Z" fill="white"/>
<path d="M28.3424 15.395C28.3424 14.6925 28.3578 14.1733 28.3886 13.8373C28.4504 13.4708 28.5893 13.0585 28.8054 12.6003C29.2377 11.8062 30.4417 11.4091 32.4176 11.4091C33.8996 11.4091 34.9493 11.6687 35.5667 12.188C36.0916 12.6156 36.3694 13.2723 36.4003 14.1581C36.4312 14.4635 36.4466 14.9064 36.4466 15.4867V31.522C36.4466 32.2245 36.4157 32.759 36.3539 33.1255C36.3231 33.4615 36.1841 33.8586 35.9371 34.3167C35.5358 35.1109 34.3471 35.5079 32.3712 35.5079C30.4262 35.5079 29.2376 35.0956 28.8054 34.2709C28.5892 33.8128 28.4503 33.4157 28.3885 33.0797C28.3577 32.7437 28.3423 32.2092 28.3423 31.4762L28.3424 15.395ZM35.9372 6.91925C35.7211 7.34687 35.3198 7.6523 34.7332 7.83555C34.1466 8.01881 33.3593 8.11044 32.3714 8.11044C31.4143 8.11044 30.6425 8.01881 30.0559 7.83555C29.4693 7.6523 29.0525 7.33158 28.8055 6.87343C28.5894 6.41528 28.4504 6.01821 28.3887 5.68223C28.3578 5.31571 28.3424 4.7812 28.3424 4.0787C28.3424 3.3762 28.3578 2.85697 28.3887 2.52098C28.4505 2.15447 28.5894 1.7574 28.8055 1.32979C29.2377 0.505114 30.4418 0.0927734 32.4177 0.0927734C34.3627 0.0927734 35.5359 0.505114 35.9372 1.32979C36.1842 1.78794 36.3232 2.20028 36.3541 2.56681C36.4158 2.90278 36.4467 3.42202 36.4467 4.12452C36.4467 4.82702 36.4158 5.36153 36.3541 5.72805C36.3232 6.06402 36.1843 6.4611 35.9372 6.91925Z" fill="white"/>
<path d="M40.1489 4.03174C40.1489 3.32924 40.1644 2.81 40.1952 2.47401C40.257 2.10749 40.3959 1.69515 40.612 1.237C41.0442 0.41233 42.2483 0 44.2242 0C46.1075 0 47.2807 0.41233 47.7438 1.237C47.9908 1.69515 48.1297 2.10749 48.1606 2.47401C48.2223 2.84054 48.2532 3.37505 48.2532 4.07754V25.29C48.2532 26.3895 48.3458 27.092 48.5311 27.3975C48.7163 27.6724 49.1177 27.8098 49.7351 27.8098C50.3835 27.8098 50.8157 27.8404 51.0318 27.9015C51.248 27.932 51.5104 28.0542 51.8191 28.268C52.4366 28.6651 52.7453 29.7494 52.7453 31.5209C52.7453 33.4451 52.4366 34.6211 51.8191 35.0487C51.0164 35.5984 49.1022 35.6901 46.0766 35.3236C43.6994 35.0181 42.1557 34.2393 41.4456 32.987C40.5812 31.4903 40.1489 29.1079 40.1489 25.8398V4.03174Z" fill="white"/>
<path d="M54.5972 23.458C54.5972 19.7928 55.8939 16.769 58.4872 14.3866C61.0806 12.0042 64.0445 10.813 67.3788 10.813C70.7131 10.813 73.6616 12.0042 76.2241 14.3866C78.7866 16.7384 80.0678 19.747 80.0678 23.4122C80.0678 25.9473 79.404 28.2075 78.0765 30.1928C76.7489 32.1476 75.1281 33.5984 73.2139 34.5453C71.3306 35.4616 69.3701 35.9197 67.3325 35.9197C65.2948 35.9197 63.3189 35.431 61.4048 34.4536C59.4906 33.4457 57.8698 31.9796 56.5422 30.0554C55.2455 28.1006 54.5972 25.9015 54.5972 23.458ZM64.276 26.7567C65.264 27.4897 66.2674 27.8562 67.2862 27.8562C68.305 27.8562 69.3238 27.4744 70.3427 26.7109C71.3615 25.9473 71.8709 24.8172 71.8709 23.3205C71.8709 21.8239 71.3924 20.7091 70.4353 19.976C69.4782 19.243 68.4439 18.8765 67.3325 18.8765C66.221 18.8765 65.1868 19.2583 64.2297 20.0218C63.2726 20.7854 62.7941 21.9156 62.7941 23.4122C62.7941 24.8783 63.2881 25.9931 64.276 26.7567Z" fill="white"/>
<path d="M83.0811 42.0585V15.3024C83.0811 14.5999 83.0965 14.0807 83.1274 13.7447C83.1891 13.4087 83.3281 13.0269 83.5442 12.5993C83.9764 11.7746 85.0107 11.3623 86.647 11.3623C88.2833 11.3623 89.3793 11.5761 89.935 12.0037C90.5216 12.4008 90.8612 12.9964 90.9538 13.7905C92.127 12.2023 93.964 11.4081 96.4647 11.4081C98.9964 11.4081 101.389 12.584 103.643 14.9359C105.897 17.2877 107.023 20.0214 107.023 23.1368C107.023 26.2522 105.897 28.9859 103.643 31.3377C101.42 33.6896 99.0427 34.8655 96.511 34.8655C93.9794 34.8655 92.1424 34.163 91.0001 32.758V42.0127C91.0001 42.7152 90.9692 43.2344 90.9075 43.5704C90.8766 43.9064 90.7377 44.2882 90.4907 44.7158C90.2745 45.1739 89.8886 45.4946 89.3329 45.6779C88.7772 45.8612 88.0208 45.9528 87.0637 45.9528C86.1066 45.9528 85.3348 45.8612 84.7482 45.6779C84.1925 45.4946 83.7911 45.1892 83.5441 44.7616C83.328 44.334 83.1891 43.9522 83.1273 43.6162C83.0965 43.2802 83.0811 42.761 83.0811 42.0585H83.0811ZM92.2505 20.4795C91.5405 21.3042 91.1854 22.2052 91.1854 23.1826C91.1854 24.16 91.5405 25.061 92.2505 25.8857C92.9915 26.6798 93.9177 27.0769 95.0291 27.0769C96.1715 27.0769 97.1285 26.6798 97.9004 25.8857C98.7031 25.0916 99.1045 24.1906 99.1045 23.1826C99.1045 22.1747 98.734 21.2737 97.993 20.4795C97.252 19.6549 96.2795 19.2425 95.0755 19.2425C93.9023 19.2425 92.9606 19.6549 92.2505 20.4795Z" fill="white"/>
<path d="M110.218 33.3528C109.632 32.9862 109.338 32.4059 109.338 31.6118C109.338 30.8177 109.925 29.6112 111.098 27.9924C111.438 27.4731 111.978 27.2135 112.719 27.2135C113.491 27.2135 114.525 27.5953 115.822 28.3589C117.118 29.0919 118.292 29.4585 119.341 29.4585C121.225 29.4585 122.166 29.0919 122.166 28.3589C122.166 27.7786 121.132 27.351 119.064 27.0761C117.118 26.8012 115.189 26.0834 113.275 24.9228C112.379 24.373 111.638 23.5178 111.052 22.3571C110.465 21.1659 110.172 19.7609 110.172 18.1421C110.172 13.3163 113.522 10.9033 120.221 10.9033C122.413 10.9033 124.667 11.4226 126.983 12.461C128.063 12.9497 128.603 13.5606 128.603 14.2936C128.603 15.0267 128.264 15.9277 127.585 16.9967C126.905 18.0657 126.211 18.6003 125.501 18.6003C125.13 18.6003 124.436 18.3712 123.417 17.913C122.429 17.4549 121.348 17.2258 120.175 17.2258C118.353 17.2258 117.443 17.5618 117.443 18.2337C117.443 19.15 118.492 19.7456 120.592 20.0205C122.629 20.2343 124.605 20.8147 126.519 21.7615C127.415 22.1891 128.156 22.9374 128.742 24.0065C129.36 25.0449 129.669 26.3583 129.669 27.9466C129.669 29.5348 129.36 30.894 128.742 32.0241C128.156 33.1237 127.322 33.9484 126.242 34.4981C124.266 35.445 121.78 35.9184 118.786 35.9184C115.822 35.9184 112.966 35.0632 110.218 33.3528Z" fill="white"/>
</svg>
