<svg width="48" height="48" viewBox="0 0 48 48" fill="none" xmlns="http://www.w3.org/2000/svg">
<path d="M37.9984 30.0004C38.3984 29.6004 38.8738 29.4004 39.4244 29.4004C39.9751 29.4004 40.4498 29.6004 40.8484 30.0004L43.9984 33.2004C44.3984 33.6004 44.5984 34.0671 44.5984 34.6004C44.5984 35.1337 44.3984 35.6004 43.9984 36.0004C43.5984 36.4004 43.1318 36.6004 42.5984 36.6004C42.0651 36.6004 41.5984 36.4004 41.1984 36.0004L37.9984 32.8504C37.5984 32.4504 37.3984 31.9757 37.3984 31.4264C37.3984 30.8771 37.5984 30.4017 37.9984 30.0004ZM39.9984 6.00039C40.3984 6.40039 40.5984 6.87572 40.5984 7.42639C40.5984 7.97706 40.3984 8.45172 39.9984 8.85039L36.8484 12.0004C36.4484 12.4004 35.9738 12.6004 35.4244 12.6004C34.8751 12.6004 34.3998 12.4004 33.9984 12.0004C33.5971 11.6004 33.3971 11.1257 33.3984 10.5764C33.3998 10.0271 33.5998 9.55172 33.9984 9.15039L37.1984 6.00039C37.5984 5.60039 38.0651 5.40039 38.5984 5.40039C39.1318 5.40039 39.5984 5.60039 39.9984 6.00039ZM7.99844 6.00039C8.39844 5.60039 8.87378 5.40039 9.42444 5.40039C9.97511 5.40039 10.4498 5.60039 10.8484 6.00039L13.9984 9.20039C14.3984 9.60039 14.5984 10.0671 14.5984 10.6004C14.5984 11.1337 14.3984 11.6004 13.9984 12.0004C13.5984 12.4004 13.1238 12.6004 12.5744 12.6004C12.0251 12.6004 11.5498 12.4004 11.1484 12.0004L7.99844 8.85039C7.59844 8.45039 7.39844 7.97572 7.39844 7.42639C7.39844 6.87706 7.59844 6.40172 7.99844 6.00039ZM9.99844 30.0004C10.3984 30.4004 10.5984 30.8757 10.5984 31.4264C10.5984 31.9771 10.3984 32.4517 9.99844 32.8504L6.84844 36.0004C6.44844 36.4004 5.97378 36.6004 5.42444 36.6004C4.87511 36.6004 4.39978 36.4004 3.99844 36.0004C3.59711 35.6004 3.39711 35.1257 3.39844 34.5764C3.39978 34.0271 3.59978 33.5517 3.99844 33.1504L7.19844 30.0004C7.59844 29.6004 8.06511 29.4004 8.59844 29.4004C9.13178 29.4004 9.59844 29.6004 9.99844 30.0004ZM17.6984 33.6504L23.9984 29.8504L30.2984 33.7004L28.6484 26.5004L34.1984 21.7004L26.8984 21.0504L23.9984 14.2504L21.0984 21.0004L13.7984 21.6504L19.3484 26.5004L17.6984 33.6504ZM23.9984 34.5504L15.6984 39.5504C15.3318 39.7837 14.9484 39.8837 14.5484 39.8504C14.1484 39.8171 13.7984 39.6837 13.4984 39.4504C13.1984 39.2171 12.9651 38.9257 12.7984 38.5764C12.6318 38.2271 12.5984 37.8351 12.6984 37.4004L14.8984 27.9504L7.54844 21.6004C7.21511 21.3004 7.00711 20.9584 6.92444 20.5744C6.84178 20.1904 6.86644 19.8157 6.99844 19.4504C7.13044 19.0851 7.33044 18.7851 7.59844 18.5504C7.86644 18.3157 8.23311 18.1657 8.69844 18.1004L18.3984 17.2504L22.1484 8.35039C22.3151 7.95039 22.5738 7.65039 22.9244 7.45039C23.2751 7.25039 23.6331 7.15039 23.9984 7.15039C24.3638 7.15039 24.7218 7.25039 25.0724 7.45039C25.4231 7.65039 25.6818 7.95039 25.8484 8.35039L29.5984 17.2504L39.2984 18.1004C39.7651 18.1671 40.1318 18.3171 40.3984 18.5504C40.6651 18.7837 40.8651 19.0837 40.9984 19.4504C41.1318 19.8171 41.1571 20.1924 41.0744 20.5764C40.9918 20.9604 40.7831 21.3017 40.4484 21.6004L33.0984 27.9504L35.2984 37.4004C35.3984 37.8337 35.3651 38.2257 35.1984 38.5764C35.0318 38.9271 34.7984 39.2184 34.4984 39.4504C34.1984 39.6824 33.8484 39.8157 33.4484 39.8504C33.0484 39.8851 32.6651 39.7851 32.2984 39.5504L23.9984 34.5504Z" fill="#38BDF8"/>
</svg>
